<svg id="Слой_1" enable-background="new 0 0 300 300" height="512" viewBox="0 0 300 300" width="512" xmlns="http://www.w3.org/2000/svg"><g><g><g><path d="m184.157 84.805h-71.168c-2.771 0-4.777-2.643-4.033-5.312l9.029-32.362c.505-1.81 2.154-3.062 4.033-3.062h53.109c1.879 0 3.528 1.252 4.033 3.062l9.029 32.362c.745 2.669-1.261 5.312-4.032 5.312z" fill="#fff"/></g><g><path d="m148.574 46.348c-1.258 0-2.278-1.02-2.278-2.278v-21.084c0-1.258 1.02-2.278 2.278-2.278s2.278 1.02 2.278 2.278v21.084c0 1.258-1.02 2.278-2.278 2.278z" fill="#502652"/></g><g><path d="m185.074 84.805h-55.582c-2.164 0-3.731-1.629-3.15-3.274l7.052-19.946c.394-1.115 1.682-1.887 3.15-1.887h41.478c1.467 0 2.755.772 3.15 1.887l7.052 19.946c.582 1.645-.986 3.274-3.15 3.274z" fill="#ffec80"/></g><g><path d="m184.157 87.083h-71.168c-2.039 0-3.916-.932-5.149-2.556s-1.625-3.682-1.077-5.646l9.029-32.361c.777-2.783 3.337-4.727 6.227-4.727h53.109c2.889 0 5.45 1.944 6.227 4.727l9.03 32.362c.548 1.964.155 4.022-1.078 5.646-1.234 1.623-3.111 2.555-5.15 2.555zm-62.138-40.735c-.853 0-1.609.574-1.839 1.396l-9.029 32.362c-.162.58-.046 1.188.318 1.667.364.48.918.755 1.52.755h71.168c.602 0 1.156-.275 1.52-.755s.48-1.087.318-1.667l-9.03-32.361c-.229-.822-.985-1.396-1.838-1.396h-53.108z" fill="#502652"/></g></g><g><g><path d="m207.425 147.12v102.478h-176.01v-102.842c0-32.727 87.99-27.32 87.99-1.033 0 .304 0 .577.015.79.425-32.453 87.975-27.017 87.975-.79 0 .881.03 1.397.03 1.397z" fill="#fff"/></g><g><path d="m207.425 160.776v88.823h-176.01v-89.139c0-28.366 87.99-23.68 87.99-.895 0 .263 0 .5.015.684.425-28.129 87.975-23.417 87.975-.684 0 .763.03 1.211.03 1.211z" fill="#83d6f2"/></g><g><path d="m4.778 192.051v62.155c0 2.601 2.108 4.709 4.709 4.709h24.512c3.802 0 6.884-3.082 6.884-6.884v-59.617s.017-.51-.026-1.401c-1.118-23.365-36.079-22.353-36.079 1.038z" fill="#fff"/></g><g><path d="m19.281 204.925v50.187c0 2.1 1.262 3.802 2.818 3.802h14.667c2.275 0 4.119-2.489 4.119-5.559v-48.138s.01-.411-.015-1.132c-.67-18.863-21.589-18.046-21.589.84z" fill="#83d6f2"/></g><g><path d="m197.868 192.051v62.155c0 2.601 2.108 4.709 4.709 4.709h24.512c3.802 0 6.884-3.082 6.884-6.884v-59.617s.017-.51-.026-1.401c-1.118-23.365-36.079-22.353-36.079 1.038z" fill="#fff"/></g><g><path d="m197.868 192.051v62.155c0 2.601 2.108 4.709 4.709 4.709h24.512c3.802 0 6.884-3.082 6.884-6.884v-59.617s.017-.51-.026-1.401c-1.118-23.365-36.079-22.353-36.079 1.038z" fill="#83d6f2"/></g><g><path d="m158.546 251.882h-117.659c-1.258 0-2.278-1.02-2.278-2.278s1.02-2.278 2.278-2.278h117.659c1.258 0 2.278 1.02 2.278 2.278s-1.02 2.278-2.278 2.278z" fill="#502652"/></g><g><path d="m119.405 229.946h-78.521c-1.258 0-2.278-1.02-2.278-2.278s1.02-2.278 2.278-2.278h76.244v-5.125c0-14.075-12.188-25.526-27.17-25.526h-29.1c-6.878 0-13.441 2.42-18.479 6.814-.948.827-2.387.728-3.214-.219-.827-.948-.729-2.387.219-3.214 5.868-5.118 13.494-7.937 21.473-7.937h29.1c17.494 0 31.726 13.495 31.726 30.082v7.403c0 1.258-1.02 2.278-2.278 2.278z" fill="#502652"/></g><g><path d="m158.546 229.946h-39.141c-1.258 0-2.278-1.02-2.278-2.278v-7.403c0-16.587 14.232-30.082 31.725-30.082h3.651c1.258 0 2.278 1.02 2.278 2.278s-1.02 2.278-2.278 2.278h-3.651c-14.981 0-27.169 11.451-27.169 25.526v5.125h36.863c1.258 0 2.278 1.02 2.278 2.278s-1.02 2.278-2.278 2.278z" fill="#502652"/></g><g><path d="m229.323 261.193h-24.513c-5.052 0-9.162-4.11-9.162-9.162v-4.99c0-1.258 1.02-2.278 2.278-2.278s2.278 1.02 2.278 2.278v4.99c0 2.54 2.066 4.607 4.606 4.607h24.513c1.341 0 2.431-1.091 2.431-2.431v-37.516c0-1.258 1.02-2.278 2.278-2.278s2.278 1.02 2.278 2.278v37.516c0 3.851-3.134 6.986-6.987 6.986z" fill="#502652"/></g><g><path d="m198.575 187.344c-.188 0-.379-.023-.569-.072-1.218-.313-1.952-1.555-1.638-2.774 2.233-8.682 9.747-14.379 19.141-14.513 7.835-.12 17.108 4.193 19.953 14.069.348 1.209-.35 2.471-1.558 2.819-1.21.348-2.471-.35-2.82-1.559-2.328-8.083-9.838-10.852-15.509-10.774-5.529.079-12.72 3.032-14.794 11.093-.266 1.028-1.191 1.711-2.206 1.711z" fill="#502652"/></g><g><path d="m33.999 261.193h-24.512c-1.866 0-3.621-.727-4.941-2.046-1.32-1.32-2.047-3.075-2.046-4.941v-62.155c0-13.035 10.033-20.095 19.944-20.332 9.491-.226 20.043 5.679 20.69 19.184.048 1.01.027 1.587.027 1.587l.001 59.541c0 5.051-4.111 9.162-9.163 9.162zm-11.004-84.925c-.148 0-.295.002-.442.005-7.464.179-15.497 5.192-15.497 15.777v62.155c0 .65.253 1.26.712 1.719s1.07.712 1.719.712h24.512c2.54 0 4.606-2.066 4.606-4.607v-59.617c.003-.117.012-.555-.023-1.293-.493-10.304-8.11-14.851-15.587-14.851z" fill="#502652"/></g><g><path d="m119.405 218.967c-1.258 0-2.278-1.02-2.278-2.278v-68.424c0-15.013-14.035-20.362-27.17-20.362h-29.1c-13.135 0-27.17 5.349-27.17 20.362v26.67c0 1.258-1.02 2.278-2.278 2.278s-2.278-1.02-2.278-2.278v-26.67c0-15.37 12.157-24.918 31.726-24.918h29.1c19.57 0 31.726 9.548 31.726 24.918v68.424c0 1.259-1.02 2.278-2.278 2.278z" fill="#502652"/></g><g><path d="m207.401 175.323c-1.258 0-2.278-1.02-2.278-2.278v-24.779c0-15.013-14.035-20.362-27.17-20.362h-29.1c-13.135 0-27.169 5.349-27.169 20.362v12.568c0 1.258-1.02 2.278-2.278 2.278s-2.278-1.02-2.278-2.278v-12.568c0-15.37 12.157-24.918 31.725-24.918h29.1c19.57 0 31.726 9.548 31.726 24.918v24.779c0 1.258-1.02 2.278-2.278 2.278z" fill="#502652"/></g></g><g><g><path d="m176.185 209.534-13.892 64.366c-.346 1.602.875 3.114 2.514 3.114h4.405c.926 0 1.781-.498 2.238-1.304l37.48-66.176z" fill="#fff"/></g><g><path d="m281.27 209.534 13.892 64.366c.346 1.602-.875 3.114-2.514 3.114h-4.405c-.926 0-1.781-.498-2.238-1.304l-37.48-66.176z" fill="#fff"/></g><g><path d="m283.662 209.534h-108.884c-4.715 0-8.537-3.822-8.537-8.537 0-4.715 3.822-8.537 8.537-8.537h108.885c4.715 0 8.537 3.822 8.537 8.537-.001 4.715-3.823 8.537-8.538 8.537z" fill="#fff"/></g><g><path d="m189.268 209.534-23.317 64.366c-.208 1.602.525 3.114 1.509 3.114h2.645c.556 0 1.069-.498 1.344-1.304l37.48-66.176z" fill="#ffec80"/></g><g><path d="m281.27 209.534 13.892 64.366c.346 1.602-.875 3.114-2.514 3.114h-4.405c-.926 0-1.781-.498-2.238-1.304l-37.48-66.176z" fill="#ffec80"/></g><g><path d="m169.212 279.292h-4.405c-1.473 0-2.849-.657-3.774-1.804-.925-1.146-1.277-2.629-.967-4.069l13.892-64.365c.265-1.23 1.475-2.012 2.707-1.746 1.23.265 2.012 1.477 1.746 2.707l-13.891 64.365c-.02.091 0 .174.058.246.059.072.136.109.229.109h4.405c.106 0 .204-.057.255-.149l37.48-66.176c.62-1.095 2.01-1.48 3.105-.859 1.094.62 1.479 2.01.859 3.105l-37.48 66.176c-.859 1.517-2.475 2.46-4.219 2.46z" fill="#502652"/></g><g><path d="m292.649 279.292h-4.405c-1.744 0-3.361-.943-4.22-2.46l-37.48-66.175c-.62-1.095-.235-2.485.859-3.105s2.484-.235 3.105.859l37.48 66.176c.052.092.15.149.255.149h4.405c.093 0 .17-.037.229-.109.058-.072.078-.155.058-.246l-13.892-64.366c-.265-1.23.516-2.442 1.746-2.707 1.228-.266 2.442.516 2.707 1.746l13.892 64.366c.311 1.44-.042 2.923-.967 4.069-.923 1.145-2.299 1.803-3.772 1.803z" fill="#502652"/></g><g><path d="m284.174 209.534h-95.258c-4.432 0-8.025-3.593-8.025-8.025v-1.024c0-4.432 3.593-8.025 8.025-8.025h95.258c4.432 0 8.025 3.593 8.025 8.025v1.024c0 4.432-3.593 8.025-8.025 8.025z" fill="#ffec80"/></g><g><path d="m283.662 211.812h-108.884c-5.963 0-10.815-4.851-10.815-10.815 0-5.963 4.851-10.815 10.815-10.815h108.885c5.963 0 10.815 4.851 10.815 10.815-.001 5.963-4.852 10.815-10.816 10.815zm-108.884-17.074c-3.451 0-6.259 2.808-6.259 6.259s2.808 6.259 6.259 6.259h108.885c3.451 0 6.259-2.808 6.259-6.259s-2.808-6.259-6.259-6.259z" fill="#502652"/></g></g></g></svg>